<svg width="50" height="46" viewBox="0 0 50 46" fill="none" xmlns="http://www.w3.org/2000/svg">
<g clip-path="url(#clip0_90_40)">
<path d="M16.6664 24.6227L32.6691 40.6255C31.3992 43.6052 28.4434 45.6944 24.9992 45.6944C20.397 45.6944 16.6656 41.9637 16.6656 37.3608V24.6227H16.6664Z" fill="#5864F2"/>
<path d="M33.3328 20.6944V33.4324L17.3301 17.4297C18.6 14.45 21.5557 12.3608 24.9992 12.3608C27.3007 12.3608 29.3841 13.2935 30.8918 14.8018C32.3994 16.3102 33.3328 18.3936 33.3328 20.6944Z" fill="#5864F2"/>
<path d="M11.1112 17.9168V40.1391C4.97441 40.1391 0 35.1647 0 29.0279C0 22.8912 4.97441 17.9168 11.1112 17.9168Z" fill="#5864F2"/>
<path d="M38.8888 17.9168V40.1391C45.0256 40.1391 50 35.1647 50 29.0279C50 22.8912 45.0256 17.9168 38.8888 17.9168Z" fill="#5864F2"/>
<path d="M45.6944 23.472H43.1945V20.6944C43.1945 10.6619 35.0324 2.49993 25 2.49993C14.9676 2.49993 6.80559 10.6619 6.80559 20.6944V23.472H4.30566V20.6944C4.30566 17.9015 4.85305 15.1907 5.93254 12.6385C6.97497 10.1742 8.46664 7.96139 10.3668 6.06118C12.267 4.16097 14.4798 2.6693 16.9441 1.62688C19.4964 0.547382 22.2071 0 25 0C27.7929 0 30.5036 0.547382 33.0559 1.62688C35.5202 2.6693 37.733 4.16097 39.6332 6.06118C41.5334 7.96139 43.0251 10.1742 44.0675 12.6385C45.147 15.1907 45.6944 17.9008 45.6944 20.6944V23.472Z" fill="#5864F2"/>
</g>
<defs>
<clipPath id="clip0_90_40">
<rect width="50" height="45.6944" fill="white"/>
</clipPath>
</defs>
</svg>
